AmstelvarA2-Roman_XTSP100.ufo
<glyph name="at" format="2">
  <advance width="1909"/>
  <unicode hex="0040"/>
  <outline>
    <contour>
      <point x="180" y="725" type="qcurve" smooth="yes"/>
      <point x="180" y="1058"/>
      <point x="610" y="1520"/>
      <point x="974" y="1520" type="qcurve" smooth="yes"/>
      <point x="1314" y="1520"/>
      <point x="1752" y="1157"/>
      <point x="1752" y="863" type="qcurve" smooth="yes"/>
      <point x="1752" y="630"/>
      <point x="1505" y="349"/>
      <point x="1362" y="349" type="qcurve" smooth="yes"/>
      <point x="1287" y="349"/>
      <point x="1171" y="400"/>
      <point x="1150" y="461" type="qcurve"/>
      <point x="1104" y="400"/>
      <point x="927" y="317"/>
      <point x="834" y="317" type="qcurve" smooth="yes"/>
      <point x="724" y="317"/>
      <point x="588" y="453"/>
      <point x="588" y="544" type="qcurve" smooth="yes"/>
      <point x="588" y="662"/>
      <point x="874" y="832"/>
      <point x="1155" y="866" type="qcurve"/>
      <point x="1163" y="785" type="line"/>
      <point x="975" y="762"/>
      <point x="754" y="667"/>
      <point x="754" y="561" type="qcurve" smooth="yes"/>
      <point x="754" y="504"/>
      <point x="843" y="437"/>
      <point x="900" y="437" type="qcurve" smooth="yes"/>
      <point x="966" y="437"/>
      <point x="1104" y="515"/>
      <point x="1133" y="557" type="qcurve"/>
      <point x="1135" y="863" type="line" smooth="yes"/>
      <point x="1136" y="1010"/>
      <point x="1037" y="1112"/>
      <point x="957" y="1112" type="qcurve" smooth="yes"/>
      <point x="884" y="1112"/>
      <point x="797" y="1071"/>
      <point x="766" y="1046" type="qcurve"/>
      <point x="785" y="1027"/>
      <point x="808" y="987"/>
      <point x="810" y="970" type="qcurve" smooth="yes"/>
      <point x="817" y="934"/>
      <point x="776" y="885"/>
      <point x="737" y="885" type="qcurve" smooth="yes"/>
      <point x="697" y="885"/>
      <point x="648" y="954"/>
      <point x="648" y="1012" type="qcurve" smooth="yes"/>
      <point x="648" y="1094"/>
      <point x="848" y="1213"/>
      <point x="971" y="1213" type="qcurve" smooth="yes"/>
      <point x="1119" y="1213"/>
      <point x="1283" y="1042"/>
      <point x="1285" y="854" type="qcurve" smooth="yes"/>
      <point x="1290" y="485" type="line" smooth="yes"/>
      <point x="1290" y="469"/>
      <point x="1306" y="460"/>
      <point x="1319" y="460" type="qcurve" smooth="yes"/>
      <point x="1461" y="460"/>
      <point x="1613" y="667"/>
      <point x="1613" y="858" type="qcurve" smooth="yes"/>
      <point x="1613" y="1092"/>
      <point x="1281" y="1384"/>
      <point x="974" y="1384" type="qcurve" smooth="yes"/>
      <point x="665" y="1384"/>
      <point x="328" y="1023"/>
      <point x="328" y="737" type="qcurve" smooth="yes"/>
      <point x="328" y="471"/>
      <point x="688" y="99"/>
      <point x="974" y="99" type="qcurve" smooth="yes"/>
      <point x="1114" y="99"/>
      <point x="1292" y="163"/>
      <point x="1337" y="195" type="qcurve"/>
      <point x="1403" y="108" type="line"/>
      <point x="1344" y="57"/>
      <point x="1124" y="-30"/>
      <point x="969" y="-30" type="qcurve" smooth="yes"/>
      <point x="631" y="-30"/>
      <point x="180" y="399"/>
    </contour>
  </outline>
</glyph>
<glyph name="macron" format="2">
  <advance width="1224"/>
  <unicode hex="00AF"/>
  <outline>
    <contour>
      <point x="315" y="1147" type="line"/>
      <point x="315" y="1281" type="line"/>
      <point x="907" y="1281" type="line"/>
      <point x="907" y="1147" type="line"/>
    </contour>
  </outline>
</glyph>
<glyph name="germandbls" format="2">
  <advance width="1532"/>
  <unicode hex="00DF"/>
  <outline>
    <contour>
      <point x="1169" y="1222" type="qcurve" smooth="yes"/>
      <point x="1169" y="1080"/>
      <point x="1035" y="957"/>
      <point x="936" y="921" type="qcurve" smooth="yes"/>
      <point x="888" y="904"/>
      <point x="821" y="849"/>
      <point x="821" y="790" type="qcurve" smooth="yes"/>
      <point x="821" y="728"/>
      <point x="931" y="651"/>
      <point x="1038" y="622" type="qcurve" smooth="yes"/>
      <point x="1201" y="578"/>
      <point x="1384" y="432"/>
      <point x="1384" y="287" type="qcurve" smooth="yes"/>
      <point x="1384" y="160"/>
      <point x="1190" y="-23"/>
      <point x="1049" y="-23" type="qcurve" smooth="yes"/>
      <point x="953" y="-23"/>
      <point x="827" y="31"/>
      <point x="772" y="73" type="qcurve"/>
      <point x="733" y="0" type="line"/>
      <point x="642" y="0" type="line"/>
      <point x="642" y="339" type="line"/>
      <point x="749" y="339" type="line"/>
      <point x="760" y="280" type="line" smooth="yes"/>
      <point x="776" y="194"/>
      <point x="927" y="88"/>
      <point x="1025" y="88" type="qcurve" smooth="yes"/>
      <point x="1105" y="88"/>
      <point x="1230" y="177"/>
      <point x="1230" y="260" type="qcurve" smooth="yes"/>
      <point x="1230" y="344"/>
      <point x="1102" y="426"/>
      <point x="969" y="469" type="qcurve" smooth="yes"/>
      <point x="796" y="526"/>
      <point x="669" y="650"/>
      <point x="669" y="759" type="qcurve" smooth="yes"/>
      <point x="669" y="869"/>
      <point x="793" y="982"/>
      <point x="884" y="1019" type="qcurve" smooth="yes"/>
      <point x="966" y="1052"/>
      <point x="1036" y="1138"/>
      <point x="1036" y="1213" type="qcurve" smooth="yes"/>
      <point x="1036" y="1296"/>
      <point x="925" y="1405"/>
      <point x="801" y="1405" type="qcurve" smooth="yes"/>
      <point x="651" y="1405"/>
      <point x="481" y="1244"/>
      <point x="483" y="1069" type="qcurve"/>
      <point x="487" y="527" type="line"/>
      <point x="500" y="45" type="line"/>
      <point x="471" y="0" type="line"/>
      <point x="154" y="0" type="line"/>
      <point x="154" y="80" type="line"/>
      <point x="322" y="115" type="line"/>
      <point x="324" y="527" type="line"/>
      <point x="327" y="1104" type="line" smooth="yes"/>
      <point x="328" y="1287"/>
      <point x="609" y="1518"/>
      <point x="806" y="1518" type="qcurve" smooth="yes"/>
      <point x="981" y="1518"/>
      <point x="1169" y="1355"/>
    </contour>
  </outline>
</glyph>
<glyph name="OE" format="2">
  <advance width="2258"/>
  <unicode hex="0152"/>
  <outline>
    <contour>
      <point x="180" y="737" type="qcurve" smooth="yes"/>
      <point x="180" y="1068"/>
      <point x="575" y="1518"/>
      <point x="912" y="1518" type="qcurve" smooth="yes"/>
      <point x="973" y="1518"/>
      <point x="1250" y="1500"/>
      <point x="1310" y="1500" type="qcurve" smooth="yes"/>
      <point x="2006" y="1500" type="line"/>
      <point x="2006" y="1152" type="line"/>
      <point x="1896" y="1152" type="line"/>
      <point x="1861" y="1382" type="line"/>
      <point x="1398" y="1382" type="line"/>
      <point x="1369" y="1362" type="line"/>
      <point x="1367" y="783" type="line"/>
      <point x="1369" y="132" type="line"/>
      <point x="1399" y="108" type="line"/>
      <point x="1924" y="108" type="line"/>
      <point x="2000" y="378" type="line"/>
      <point x="2110" y="378" type="line"/>
      <point x="2070" y="0" type="line"/>
      <point x="1370" y="0" type="line" smooth="yes"/>
      <point x="1307" y="0"/>
      <point x="1001" y="-26"/>
      <point x="916" y="-26" type="qcurve" smooth="yes"/>
      <point x="587" y="-26"/>
      <point x="180" y="396"/>
    </contour>
    <contour>
      <point x="371" y="771" type="qcurve" smooth="yes"/>
      <point x="371" y="478"/>
      <point x="664" y="97"/>
      <point x="914" y="97" type="qcurve" smooth="yes"/>
      <point x="992" y="97"/>
      <point x="1132" y="112"/>
      <point x="1190" y="127" type="qcurve"/>
      <point x="1192" y="783" type="line"/>
      <point x="1190" y="1360" type="line"/>
      <point x="1152" y="1366"/>
      <point x="989" y="1388"/>
      <point x="914" y="1388" type="qcurve" smooth="yes"/>
      <point x="641" y="1388"/>
      <point x="371" y="1053"/>
    </contour>
    <contour>
      <point x="1281" y="738" type="line"/>
      <point x="1281" y="834" type="line"/>
      <point x="1715" y="844" type="line"/>
      <point x="1750" y="1004" type="line"/>
      <point x="1860" y="1004" type="line"/>
      <point x="1860" y="568" type="line"/>
      <point x="1750" y="568" type="line"/>
      <point x="1715" y="728" type="line"/>
    </contour>
  </outline>
</glyph>
<glyph name="Phi" format="2">
  <advance width="1839"/>
  <unicode hex="03A6"/>
  <outline>
    <contour>
      <point x="656" y="-24" type="line"/>
      <point x="656" y="85" type="line"/>
      <point x="834" y="119" type="line"/>
      <point x="837" y="260" type="line"/>
      <point x="847" y="260" type="line"/>
      <point x="849" y="740" type="line"/>
      <point x="989" y="740" type="line"/>
      <point x="991" y="261" type="line"/>
      <point x="1001" y="260" type="line"/>
      <point x="1004" y="119" type="line"/>
      <point x="1182" y="85" type="line"/>
      <point x="1182" y="-24" type="line"/>
    </contour>
    <contour>
      <point x="849" y="740" type="line"/>
      <point x="847" y="1235" type="line"/>
      <point x="837" y="1236" type="line"/>
      <point x="834" y="1377" type="line"/>
      <point x="656" y="1411" type="line"/>
      <point x="656" y="1520" type="line"/>
      <point x="1182" y="1520" type="line"/>
      <point x="1182" y="1411" type="line"/>
      <point x="1004" y="1377" type="line"/>
      <point x="1001" y="1236" type="line"/>
      <point x="991" y="1236" type="line"/>
      <point x="989" y="740" type="line"/>
    </contour>
    <contour>
      <point x="888" y="225" type="line"/>
      <point x="497" y="225"/>
      <point x="180" y="496"/>
      <point x="180" y="713" type="qcurve" smooth="yes"/>
      <point x="180" y="969"/>
      <point x="534" y="1264"/>
      <point x="888" y="1273" type="qcurve"/>
      <point x="888" y="1153" type="line"/>
      <point x="614" y="1151"/>
      <point x="363" y="920"/>
      <point x="363" y="724" type="qcurve" smooth="yes"/>
      <point x="363" y="536"/>
      <point x="614" y="337"/>
      <point x="888" y="337" type="qcurve"/>
    </contour>
    <contour>
      <point x="950" y="225" type="qcurve"/>
      <point x="950" y="337" type="line"/>
      <point x="1225" y="339"/>
      <point x="1476" y="570"/>
      <point x="1476" y="766" type="qcurve" smooth="yes"/>
      <point x="1476" y="954"/>
      <point x="1225" y="1153"/>
      <point x="950" y="1153" type="qcurve"/>
      <point x="950" y="1273" type="line"/>
      <point x="1342" y="1273"/>
      <point x="1659" y="1002"/>
      <point x="1659" y="785" type="qcurve" smooth="yes"/>
      <point x="1659" y="529"/>
      <point x="1305" y="234"/>
    </contour>
  </outline>
</glyph>
<glyph name="Ieukran" format="2">
  <advance width="1680"/>
  <unicode hex="0404"/>
  <guideline x="211" y="787" angle="90" identifier="mFTeE97JTj"/>
  <outline>
    <contour>
      <point x="180" y="700" type="qcurve" smooth="yes"/>
      <point x="180" y="1044"/>
      <point x="587" y="1520"/>
      <point x="934" y="1520" type="qcurve" smooth="yes"/>
      <point x="1064" y="1520"/>
      <point x="1261" y="1458"/>
      <point x="1315" y="1422" type="qcurve"/>
      <point x="1347" y="1500" type="line"/>
      <point x="1441" y="1500" type="line"/>
      <point x="1441" y="1051" type="line"/>
      <point x="1327" y="1051" type="line"/>
      <point x="1295" y="1180" type="line" smooth="yes"/>
      <point x="1267" y="1296"/>
      <point x="1096" y="1392"/>
      <point x="968" y="1392" type="qcurve" smooth="yes"/>
      <point x="695" y="1392"/>
      <point x="369" y="1061"/>
      <point x="371" y="740" type="qcurve" smooth="yes"/>
      <point x="373" y="442"/>
      <point x="686" y="114"/>
      <point x="947" y="114" type="qcurve" smooth="yes"/>
      <point x="1140" y="114"/>
      <point x="1378" y="235"/>
      <point x="1444" y="328" type="qcurve"/>
      <point x="1540" y="245" type="line"/>
      <point x="1436" y="110"/>
      <point x="1127" y="-30"/>
      <point x="952" y="-30" type="qcurve" smooth="yes"/>
      <point x="593" y="-30"/>
      <point x="180" y="371"/>
    </contour>
    <contour>
      <point x="276" y="713" type="line"/>
      <point x="276" y="809" type="line"/>
      <point x="952" y="819" type="line"/>
      <point x="987" y="979" type="line"/>
      <point x="1097" y="979" type="line"/>
      <point x="1097" y="543" type="line"/>
      <point x="987" y="543" type="line"/>
      <point x="952" y="703" type="line"/>
    </contour>
  </outline>
</glyph>
<glyph name="Lje" format="2">
  <advance width="2258"/>
  <unicode hex="0409"/>
  <outline>
    <contour>
      <point x="1913" y="473" type="qcurve" smooth="yes"/>
      <point x="1913" y="628"/>
      <point x="1723" y="788"/>
      <point x="1563" y="788" type="qcurve" smooth="yes"/>
      <point x="1349" y="788" type="line"/>
      <point x="1340" y="774" type="line"/>
      <point x="1341" y="130" type="line"/>
      <point x="1375" y="108" type="line"/>
      <point x="1561" y="108" type="line" smooth="yes"/>
      <point x="1732" y="108"/>
      <point x="1913" y="304"/>
    </contour>
    <contour>
      <point x="1340" y="1352" type="line"/>
      <point x="1339" y="915" type="line"/>
      <point x="1348" y="901" type="line"/>
      <point x="1619" y="901" type="line" smooth="yes"/>
      <point x="1858" y="901"/>
      <point x="2108" y="685"/>
      <point x="2108" y="473" type="qcurve" smooth="yes"/>
      <point x="2108" y="267"/>
      <point x="1843" y="0"/>
      <point x="1603" y="0" type="qcurve" smooth="yes"/>
      <point x="952" y="0" type="line"/>
      <point x="952" y="100" type="line"/>
      <point x="1160" y="135" type="line"/>
      <point x="1162" y="736" type="line"/>
      <point x="1160" y="1354" type="line"/>
      <point x="1120" y="1382" type="line"/>
      <point x="730" y="1382" type="line"/>
      <point x="690" y="1354" type="line"/>
      <point x="638" y="754" type="line" smooth="yes"/>
      <point x="599" y="307"/>
      <point x="447" y="-17"/>
      <point x="239" y="-17" type="qcurve" smooth="yes"/>
      <point x="215" y="-17"/>
      <point x="179" y="-10"/>
      <point x="150" y="0" type="qcurve"/>
      <point x="150" y="178" type="line"/>
      <point x="174" y="170"/>
      <point x="214" y="165"/>
      <point x="235" y="165" type="qcurve" smooth="yes"/>
      <point x="376" y="165"/>
      <point x="477" y="471"/>
      <point x="502" y="754" type="qcurve" smooth="yes"/>
      <point x="554" y="1352" type="line"/>
      <point x="346" y="1386" type="line"/>
      <point x="346" y="1500" type="line"/>
      <point x="1548" y="1500" type="line"/>
      <point x="1548" y="1386" type="line"/>
    </contour>
  </outline>
</glyph>
<glyph name="Ghe" format="2">
  <advance width="1356"/>
  <unicode hex="0413"/>
  <outline>
    <contour>
      <point x="182" y="0" type="line"/>
      <point x="182" y="100" type="line"/>
      <point x="390" y="137" type="line"/>
      <point x="392" y="760" type="line"/>
      <point x="390" y="1352" type="line"/>
      <point x="182" y="1386" type="line"/>
      <point x="182" y="1500" type="line"/>
      <point x="1206" y="1500" type="line"/>
      <point x="1206" y="1142" type="line"/>
      <point x="1096" y="1142" type="line"/>
      <point x="1061" y="1382" type="line"/>
      <point x="600" y="1382" type="line"/>
      <point x="570" y="1362" type="line"/>
      <point x="568" y="760" type="line"/>
      <point x="570" y="132" type="line"/>
      <point x="798" y="100" type="line"/>
      <point x="798" y="0" type="line"/>
    </contour>
  </outline>
</glyph>
<glyph name="De" format="2">
  <advance width="1830"/>
  <unicode hex="0414"/>
  <outline>
    <contour>
      <point x="1536" y="-338" type="line"/>
      <point x="1467" y="0" type="line"/>
      <point x="341" y="0" type="line"/>
      <point x="272" y="-338" type="line"/>
      <point x="150" y="-338" type="line"/>
      <point x="160" y="108" type="line"/>
      <point x="1648" y="108" type="line"/>
      <point x="1658" y="-338" type="line"/>
    </contour>
    <contour>
      <point x="490" y="794" type="qcurve" smooth="yes"/>
      <point x="538" y="1352" type="line"/>
      <point x="330" y="1386" type="line"/>
      <point x="330" y="1500" type="line"/>
      <point x="1648" y="1500" type="line"/>
      <point x="1648" y="1386" type="line"/>
      <point x="1440" y="1352" type="line"/>
      <point x="1438" y="754" type="line"/>
      <point x="1440" y="0" type="line"/>
      <point x="1260" y="0" type="line"/>
      <point x="1262" y="754" type="line"/>
      <point x="1260" y="1354" type="line"/>
      <point x="1220" y="1382" type="line"/>
      <point x="714" y="1382" type="line"/>
      <point x="674" y="1354" type="line"/>
      <point x="625" y="793" type="line" smooth="yes"/>
      <point x="600" y="503"/>
      <point x="532" y="185"/>
      <point x="475" y="56" type="qcurve"/>
      <point x="316" y="56" type="line"/>
      <point x="388" y="189"/>
      <point x="465" y="508"/>
    </contour>
  </outline>
</glyph>
<glyph name="emdash" format="2">
  <advance width="2248"/>
  <unicode hex="2014"/>
  <outline>
    <contour>
      <point x="356" y="562" type="line"/>
      <point x="356" y="700" type="line"/>
      <point x="1124" y="702" type="line"/>
      <point x="1892" y="700" type="line"/>
      <point x="1892" y="562" type="line"/>
      <point x="1124" y="556" type="line"/>
    </contour>
  </outline>
</glyph>
<glyph name="quotedblright" format="2">
  <advance width="1230"/>
  <unicode hex="201D"/>
  <outline>
    <contour>
      <point x="225" y="1062" type="line"/>
      <point x="265" y="1092"/>
      <point x="369" y="1210"/>
      <point x="384" y="1277" type="qcurve"/>
      <point x="313" y="1277"/>
      <point x="233" y="1352"/>
      <point x="233" y="1411" type="qcurve" smooth="yes"/>
      <point x="233" y="1469"/>
      <point x="314" y="1546"/>
      <point x="377" y="1546" type="qcurve" smooth="yes"/>
      <point x="436" y="1546"/>
      <point x="532" y="1450"/>
      <point x="532" y="1373" type="qcurve" smooth="yes"/>
      <point x="532" y="1251"/>
      <point x="373" y="1063"/>
      <point x="268" y="1013" type="qcurve"/>
    </contour>
    <contour>
      <point x="655" y="1062" type="line"/>
      <point x="695" y="1092"/>
      <point x="799" y="1210"/>
      <point x="814" y="1277" type="qcurve"/>
      <point x="743" y="1277"/>
      <point x="663" y="1352"/>
      <point x="663" y="1411" type="qcurve" smooth="yes"/>
      <point x="663" y="1469"/>
      <point x="744" y="1546"/>
      <point x="807" y="1546" type="qcurve" smooth="yes"/>
      <point x="866" y="1546"/>
      <point x="962" y="1450"/>
      <point x="962" y="1373" type="qcurve" smooth="yes"/>
      <point x="962" y="1251"/>
      <point x="803" y="1063"/>
      <point x="698" y="1013" type="qcurve"/>
    </contour>
  </outline>
</glyph>
<glyph name="guilsinglright" format="2">
  <advance width="1047"/>
  <unicode hex="203A"/>
  <outline>
    <contour>
      <point x="922.7823834196892" y="588" type="line"/>
      <point x="838.7823834196892" y="540"/>
      <point x="341.78238341968915" y="233"/>
      <point x="269.78238341968915" y="188" type="qcurve" smooth="yes"/>
      <point x="199.78238341968913" y="144"/>
      <point x="117.78238341968913" y="241"/>
      <point x="183.78238341968913" y="287" type="qcurve" smooth="yes"/>
      <point x="274.78238341968915" y="351"/>
      <point x="638.7823834196892" y="583"/>
      <point x="668.7823834196892" y="599" type="qcurve"/>
      <point x="638.7823834196892" y="621"/>
      <point x="272.78238341968915" y="865"/>
      <point x="179.78238341968913" y="929" type="qcurve" smooth="yes"/>
      <point x="114.78238341968913" y="973"/>
      <point x="177.78238341968913" y="1076"/>
      <point x="250.78238341968913" y="1038" type="qcurve" smooth="yes"/>
      <point x="316.78238341968915" y="1004"/>
      <point x="847.7823834196892" y="676"/>
      <point x="922.7823834196892" y="628" type="qcurve"/>
    </contour>
  </outline>
</glyph>
<glyph name="peseta" format="2">
  <advance width="2486"/>
  <unicode hex="20A7"/>
  <outline>
    <contour>
      <point x="182" y="0" type="line"/>
      <point x="182" y="100" type="line"/>
      <point x="390" y="137" type="line"/>
      <point x="392" y="754" type="line"/>
      <point x="390" y="1352" type="line"/>
      <point x="182" y="1386" type="line"/>
      <point x="182" y="1500" type="line"/>
      <point x="689" y="1500" type="line" smooth="yes"/>
      <point x="897" y="1500"/>
      <point x="1134" y="1277"/>
      <point x="1134" y="1127" type="qcurve" smooth="yes"/>
      <point x="1134" y="908"/>
      <point x="904" y="660"/>
      <point x="695" y="660" type="qcurve" smooth="yes"/>
      <point x="652" y="660"/>
      <point x="518" y="677"/>
      <point x="488" y="687" type="qcurve"/>
      <point x="497" y="793" type="line"/>
      <point x="529" y="782"/>
      <point x="620" y="772"/>
      <point x="655" y="772" type="qcurve" smooth="yes"/>
      <point x="797" y="772"/>
      <point x="946" y="946"/>
      <point x="946" y="1099" type="qcurve" smooth="yes"/>
      <point x="946" y="1240"/>
      <point x="785" y="1382"/>
      <point x="652" y="1382" type="qcurve" smooth="yes"/>
      <point x="599" y="1382" type="line"/>
      <point x="570" y="1362" type="line"/>
      <point x="568" y="820" type="line"/>
      <point x="570" y="132" type="line"/>
      <point x="778" y="100" type="line"/>
      <point x="778" y="0" type="line"/>
    </contour>
    <contour>
      <point x="1086" y="832" type="line"/>
      <point x="1086" y="906" type="line"/>
      <point x="1248" y="925"/>
      <point x="1341" y="1135"/>
      <point x="1347" y="1236" type="qcurve"/>
      <point x="1394" y="1236" type="line"/>
      <point x="1449" y="1188" type="line"/>
      <point x="1430" y="924" type="line"/>
      <point x="1640" y="924" type="line"/>
      <point x="1640" y="822" type="line"/>
      <point x="1423" y="822" type="line"/>
      <point x="1417" y="613" type="line"/>
      <point x="1417" y="216" type="line" smooth="yes"/>
      <point x="1417" y="161"/>
      <point x="1465" y="109"/>
      <point x="1525" y="109" type="qcurve" smooth="yes"/>
      <point x="1617" y="109" type="line"/>
      <point x="1617" y="29" type="line"/>
      <point x="1384" y="-8" type="line"/>
      <point x="1307" y="-8"/>
      <point x="1249" y="73"/>
      <point x="1249" y="163" type="qcurve"/>
      <point x="1251" y="527" type="line"/>
      <point x="1249" y="780" type="line"/>
    </contour>
    <contour>
      <point x="1611" y="26" type="line"/>
      <point x="1609" y="333" type="line"/>
      <point x="1710" y="333" type="line"/>
      <point x="1721" y="275" type="line" smooth="yes"/>
      <point x="1736" y="190"/>
      <point x="1873" y="86"/>
      <point x="1982" y="86" type="qcurve" smooth="yes"/>
      <point x="2077" y="86"/>
      <point x="2195" y="174"/>
      <point x="2195" y="255" type="qcurve" smooth="yes"/>
      <point x="2195" y="338"/>
      <point x="2074" y="413"/>
      <point x="1918" y="460" type="qcurve" smooth="yes"/>
      <point x="1763" y="508"/>
      <point x="1644" y="638"/>
      <point x="1644" y="746" type="qcurve" smooth="yes"/>
      <point x="1644" y="854"/>
      <point x="1804" y="1014"/>
      <point x="1949" y="1014" type="qcurve" smooth="yes"/>
      <point x="2022" y="1014"/>
      <point x="2125" y="975"/>
      <point x="2161" y="952" type="qcurve"/>
      <point x="2174" y="982" type="line"/>
      <point x="2260" y="982" type="line"/>
      <point x="2260" y="692" type="line"/>
      <point x="2160" y="692" type="line"/>
      <point x="2140" y="803" type="line" smooth="yes"/>
      <point x="2132" y="846"/>
      <point x="2031" y="902"/>
      <point x="1953" y="902" type="qcurve" smooth="yes"/>
      <point x="1867" y="902"/>
      <point x="1788" y="834"/>
      <point x="1788" y="776" type="qcurve" smooth="yes"/>
      <point x="1788" y="715"/>
      <point x="1871" y="654"/>
      <point x="2020" y="611" type="qcurve" smooth="yes"/>
      <point x="2166" y="569"/>
      <point x="2341" y="424"/>
      <point x="2341" y="282" type="qcurve" smooth="yes"/>
      <point x="2341" y="157"/>
      <point x="2157" y="-23"/>
      <point x="2004" y="-23" type="qcurve" smooth="yes"/>
      <point x="1913" y="-23"/>
      <point x="1783" y="28"/>
      <point x="1732" y="71" type="qcurve"/>
      <point x="1703" y="16" type="line"/>
    </contour>
  </outline>
</glyph>
<glyph name="brevehookabovecomb" format="2">
  <advance width="1224"/>
  <anchor x="612.0" y="1000" name="_top"/>
  <outline>
    <contour>
      <point x="887" y="1442" type="qcurve"/>
      <point x="965" y="1389" type="line"/>
      <point x="952" y="1296"/>
      <point x="741" y="1122"/>
      <point x="612" y="1122" type="qcurve" smooth="yes"/>
      <point x="483" y="1122"/>
      <point x="279" y="1276"/>
      <point x="257" y="1386" type="qcurve"/>
      <point x="339" y="1443" type="line"/>
      <point x="371" y="1386"/>
      <point x="516" y="1280"/>
      <point x="613" y="1278" type="qcurve" smooth="yes"/>
      <point x="713" y="1280"/>
      <point x="860" y="1388"/>
    </contour>
    <contour>
      <point x="485" y="1465" type="line"/>
      <point x="485" y="1548" type="line"/>
      <point x="564" y="1636" type="line"/>
      <point x="581" y="1630"/>
      <point x="613" y="1625"/>
      <point x="627" y="1625" type="qcurve" smooth="yes"/>
      <point x="668" y="1625"/>
      <point x="719" y="1669"/>
      <point x="719" y="1711" type="qcurve" smooth="yes"/>
      <point x="719" y="1751"/>
      <point x="664" y="1793"/>
      <point x="618" y="1793" type="qcurve" smooth="yes"/>
      <point x="571" y="1793"/>
      <point x="474" y="1769"/>
      <point x="435" y="1750" type="qcurve"/>
      <point x="391" y="1854" type="line"/>
      <point x="451" y="1880"/>
      <point x="564" y="1912"/>
      <point x="615" y="1912" type="qcurve" smooth="yes"/>
      <point x="723" y="1912"/>
      <point x="861" y="1807"/>
      <point x="861" y="1704" type="qcurve" smooth="yes"/>
      <point x="861" y="1619"/>
      <point x="767" y="1512"/>
      <point x="701" y="1512" type="qcurve" smooth="yes"/>
      <point x="676" y="1512"/>
      <point x="628" y="1521"/>
      <point x="612" y="1525" type="qcurve"/>
      <point x="612" y="1465" type="line"/>
    </contour>
  </outline>
</glyph>
<glyph name="diagonalbarO.rvrn" format="2">
  <advance width="823"/>
  <outline>
    <contour>
      <point x="100" y="-122" type="line"/>
      <point x="157" y="86" type="line"/>
      <point x="175" y="81" type="line"/>
      <point x="182" y="106" type="line"/>
      <point x="303" y="78" type="line"/>
      <point x="296" y="54" type="line"/>
      <point x="316" y="50" type="line"/>
      <point x="273" y="-109" type="line"/>
    </contour>
    <contour>
      <point x="552" y="1618" type="line"/>
      <point x="723" y="1618" type="line"/>
      <point x="670" y="1424" type="line"/>
      <point x="649" y="1428" type="line"/>
      <point x="639" y="1386" type="line"/>
      <point x="521" y="1421" type="line"/>
      <point x="529" y="1455" type="line"/>
      <point x="509" y="1460" type="line"/>
    </contour>
  </outline>
</glyph>
<glyph name="dotbelowcomb.case" format="2">
  <advance width="1224"/>
  <anchor x="612.0" y="0" name="_bottom"/>
  <anchor x="612.0" y="-430.0" name="bottom"/>
  <outline>
    <contour>
      <point x="489" y="-311" type="qcurve" smooth="yes"/>
      <point x="489" y="-253"/>
      <point x="552" y="-191"/>
      <point x="612" y="-191" type="qcurve" smooth="yes"/>
      <point x="668" y="-191"/>
      <point x="735" y="-257"/>
      <point x="735" y="-311" type="qcurve" smooth="yes"/>
      <point x="735" y="-368"/>
      <point x="672" y="-430"/>
      <point x="612" y="-430" type="qcurve" smooth="yes"/>
      <point x="556" y="-430"/>
      <point x="489" y="-364"/>
    </contour>
  </outline>
</glyph>
<glyph name="macroncomb.case" format="2">
  <advance width="1224"/>
  <anchor x="612.0" y="1500" name="_top"/>
  <anchor x="612.0" y="1774.0" name="top"/>
  <outline>
    <contour>
      <point x="316" y="1640" type="line"/>
      <point x="316" y="1774" type="line"/>
      <point x="908" y="1774" type="line"/>
      <point x="908" y="1640" type="line"/>
    </contour>
  </outline>
</glyph>
<glyph name="tildecomb.case" format="2">
  <advance width="1224"/>
  <anchor x="612.0" y="1500" name="_top"/>
  <anchor x="612.0" y="1932.0" name="top"/>
  <outline>
    <contour>
      <point x="205" y="1750" type="line"/>
      <point x="242" y="1819"/>
      <point x="393" y="1932"/>
      <point x="470" y="1932" type="qcurve" smooth="yes"/>
      <point x="516" y="1932"/>
      <point x="598" y="1902"/>
      <point x="640" y="1874" type="qcurve" smooth="yes"/>
      <point x="670" y="1856"/>
      <point x="767" y="1800"/>
      <point x="814" y="1800" type="qcurve" smooth="yes"/>
      <point x="860" y="1800"/>
      <point x="945" y="1857"/>
      <point x="971" y="1896" type="qcurve"/>
      <point x="1039" y="1811" type="line"/>
      <point x="997" y="1729"/>
      <point x="858" y="1640"/>
      <point x="795" y="1640" type="qcurve" smooth="yes"/>
      <point x="742" y="1640"/>
      <point x="635" y="1689"/>
      <point x="603" y="1711" type="qcurve" smooth="yes"/>
      <point x="567" y="1736"/>
      <point x="484" y="1774"/>
      <point x="451" y="1774" type="qcurve" smooth="yes"/>
      <point x="398" y="1774"/>
      <point x="300" y="1695"/>
      <point x="280" y="1665" type="qcurve"/>
    </contour>
  </outline>
</glyph>
<glyph name="two.tab" format="2">
  <advance width="1200"/>
  <outline>
    <contour>
      <point x="160" y="0" type="line"/>
      <point x="160" y="122" type="line"/>
      <point x="184" y="246"/>
      <point x="353" y="492"/>
      <point x="515" y="636" type="qcurve" smooth="yes"/>
      <point x="682" y="784"/>
      <point x="807" y="992"/>
      <point x="807" y="1133" type="qcurve" smooth="yes"/>
      <point x="807" y="1253"/>
      <point x="687" y="1389"/>
      <point x="587" y="1389" type="qcurve" smooth="yes"/>
      <point x="472" y="1389"/>
      <point x="299" y="1300"/>
      <point x="223" y="1206" type="qcurve"/>
      <point x="151" y="1294" type="line"/>
      <point x="219" y="1389"/>
      <point x="431" y="1520"/>
      <point x="606" y="1520" type="qcurve" smooth="yes"/>
      <point x="774" y="1520"/>
      <point x="999" y="1321"/>
      <point x="999" y="1134" type="qcurve" smooth="yes"/>
      <point x="999" y="919"/>
      <point x="721" y="625"/>
      <point x="616" y="548" type="qcurve" smooth="yes"/>
      <point x="488" y="456"/>
      <point x="326" y="262"/>
      <point x="299" y="177" type="qcurve"/>
      <point x="309" y="166" type="line"/>
      <point x="1040" y="166" type="line"/>
      <point x="1040" y="0" type="line"/>
    </contour>
  </outline>
</glyph>
<glyph name="zero.lf" format="2">
  <advance width="1376"/>
  <outline>
    <contour>
      <point x="174" y="746" type="qcurve" smooth="yes"/>
      <point x="174" y="1091"/>
      <point x="465" y="1520"/>
      <point x="689" y="1520" type="qcurve" smooth="yes"/>
      <point x="918" y="1520"/>
      <point x="1202" y="1097"/>
      <point x="1202" y="754" type="qcurve" smooth="yes"/>
      <point x="1202" y="432"/>
      <point x="923" y="-22"/>
      <point x="694" y="-22" type="qcurve" smooth="yes"/>
      <point x="462" y="-22"/>
      <point x="174" y="399"/>
    </contour>
    <contour>
      <point x="359" y="772" type="qcurve" smooth="yes"/>
      <point x="360" y="481"/>
      <point x="540" y="91"/>
      <point x="687" y="91" type="qcurve" smooth="yes"/>
      <point x="846" y="91"/>
      <point x="1015" y="447"/>
      <point x="1017" y="746" type="qcurve" smooth="yes"/>
      <point x="1019" y="1027"/>
      <point x="839" y="1390"/>
      <point x="690" y="1390" type="qcurve" smooth="yes"/>
      <point x="529" y="1390"/>
      <point x="358" y="1060"/>
    </contour>
  </outline>
</glyph>
